# AST/ASF file generated using VICON BodyLanguage
# -----------------------------------------------
:version 1.10
:name VICON
:units
  mass 1.0
  length 0.45
  angle deg
:documentation
   .ast/.asf automatically generated from VICON data using
   VICON BodyBuilder and BodyLanguage model FoxedUp or BRILLIANT.MOD
:root
   order TX TY TZ RX RY RZ
   axis XYZ
   position 0 0 0  
   orientation 0 0 0 
:bonedata
  begin
     id 1 
     name lhipjoint
     direction 0.756833 -0.6125 0.228138 
     length 2.53827 
     axis 0 0 0  XYZ
  end
  begin
     id 2 
     name lfemur
     direction 0.34202 -0.939693 0  
     length 6.51821  
     axis 0 0 20  XYZ
    dof rx ry rz
    limits (-160.0 20.0)
           (-70.0 70.0)
           (-60.0 70.0)
  end
  begin
     id 3 
     name ltibia
     direction 0.34202 -0.939693 0   
     length 6.99902   
     axis 0 0 20   XYZ
    dof rx
    limits (-10.0 170.0)
  end
  begin
     id 4 
     name lfoot
     direction 0.0951515 -0.261427 0.960522   
     length 1.92102   
     axis -90 7.62852e-016 20   XYZ
    dof rx rz
    limits (-45.0 90.0)
           (-70.0 20.0)
  end
  begin
     id 5 
     name ltoes
     direction 1.53539e-011 -4.21781e-011 1   
     length 0.964376   
     axis -90 7.62852e-016 20   XYZ
    dof rx
    limits (-90.0 20.0)
  end
  begin
     id 6 
     name rhipjoint
     direction -0.752153 -0.617542 0.230017   
     length 2.51754  
     axis 0 0 0  XYZ 
  end
  begin
     id 7 
     name rfemur
     direction -0.34202 -0.939693 0   
     length 6.82377   
     axis 0 0 -20   XYZ
    dof rx ry rz
    limits (-160.0 20.0)
           (-70.0 70.0)
           (-70.0 60.0)
  end
  begin
     id 8 
     name rtibia
     direction -0.34202 -0.939693 0   
     length 6.98689   
     axis 0 0 -20   XYZ
    dof rx
    limits (-10.0 170.0)
 end
 begin
     id 9 
     name rfoot
     direction -0.0900426 -0.24739 0.964723   
     length 2.03215  
     axis -90 -7.62852e-016 -20   XYZ
    dof rx rz
    limits (-45.0 90.0)
           (-20.0 70.0)
  end
  begin
     id 10 
     name rtoes
     direction -1.53466e-011 -4.22206e-011 1   
     length 1.0197   
     axis -90 -7.62852e-016 -20   XYZ
    dof rx
    limits (-90.0 20.0)
  end
  begin
     id 11 
     name lowerback
     direction 0.0184183 0.995705 -0.0907278   
     length 2.019   
     axis 0 0 0   XYZ
    dof rx ry rz
    limits (-20.0 45.0)
           (-30.0 30.0)
           (-30.0 30.0)
  end
  begin
     id 12 
     name upperback
     direction 0.00281055 0.998777 0.0493607   
     length 1.99623   
     axis 0 0 0   XYZ
    dof rx ry rz
    limits (-20.0 45.0)
           (-30.0 30.0)
           (-30.0 30.0)
  end
  begin
     id 13 
     name thorax
     direction -0.00665507 0.995706 0.092331   
     length 2.02811   
     axis 0 0 0   XYZ
    dof rx ry rz
    limits (-20.0 45.0)
           (-30.0 30.0)
           (-30.0 30.0)
  end
  begin
     id 14 
     name lowerneck
     direction -0.0960965 0.994358 0.0449225   
     length 1.71265   
     axis 0 0 0   XYZ
    dof rx ry rz
    limits (-20.0 45.0)
           (-30.0 30.0)
           (-30.0 30.0)
  end
  begin
     id 15 
     name upperneck
     direction 0.13642 0.985357 -0.102278   
     length 1.73016   
     axis 0 0 0   XYZ
    dof rx ry rz
    limits (-20.0 45.0)
           (-30.0 30.0)
           (-30.0 30.0)
  end
  begin
     id 16
     name head
     direction 0.0556079 0.997632 -0.040479  
     length 1.74275  
     axis 0 0 0   XYZ
    dof rx ry rz
    limits (-20.0 45.0)
           (-30.0 30.0)
           (-30.0 30.0)
  end
  begin
     id 17 
     name lclavicle
     direction 0.90877 0.417247 -0.00652364  
     length 3.25514  
     axis 0 0 0   XYZ
    dof ry rz
    limits (-20.0 10.0)
           (0.0 20.0)
  end
  begin
     id 18 
     name lhumerus
     direction 1 -4.48949e-011 8.31417e-028   
     length 4.84834   
     axis 180 -30 -90   XYZ
    dof rx ry rz
    limits (-60.0 90.0)
           (-90.0 90.0)
           (-90.0 90.0)
  end
  begin
     id 19
     name lradius
     direction 1 -4.48984e-011 3.45616e-027   
     length 2.99713   
     axis 180 -30 -90   XYZ
    dof rx
    limits (-10.0 170.0)
  end
  begin
     id 20
     name lwrist
     direction 1 -4.4891e-011 4.0479e-027   
     length 1.49857   
     axis -1.61768e-015 90 90   XYZ
    dof ry
    limits (-180.0 0.0)
 end
  begin
     id 21 
     name lhand
     direction 1 -4.49025e-011 8.0958e-027   
     length 0.693987   
     axis -5.16581e-015 90 90   XYZ
    dof rx rz
    limits (-90.0 90.0)
           (-45.0 45.0)
  end
  begin
     id 22 
     name lfingers
     direction 1 -4.4888e-011 1.61916e-026   
     length 0.55951   
     axis -1.03316e-014 90 90   XYZ
    dof rx
    limits (0.0 90.0)
  end
  begin
     id 23
     name lthumb
     direction 0.707107 -6.3493e-011 0.707107   
     length 0.803348   
     axis -90 45 2.85299e-015   XYZ
    dof rx rz
    limits (-45.0 45.0)
           (-45.0 45.0)
  end
  begin
     id 24 
     name rclavicle
     direction -0.906655 0.41906 0.0486307   
     length 3.3311  
     axis 0 0 0   XYZ 
    dof ry rz
    limits (-10.0 20.0)
           (-20.0 0.0)
  end
  begin
     id 25 
     name rhumerus
     direction -1 -4.48959e-011 6.37764e-018  
     length 4.93457   
     axis 180 30 90   XYZ
    dof rx ry rz
    limits (-90.0 60.0)
           (-90.0 90.0)
           (-90.0 90.0)
  end
  begin
     id 26 
     name rradius
     direction -1 -4.48957e-011 2.20847e-027   
     length 3.3443   
     axis 180 30 90   XYZ
    dof rx
    limits (-10.0 170.0)
  end
  begin
     id 27 
     name rwrist
     direction -1 -4.49008e-011 4.0479e-027   
     length 1.67215   
     axis -1.61768e-015 -90 -90   XYZ
    dof ry
    limits (-180.0 0.0)
  end
  begin
     id 28
     name rhand
     direction -1 -4.49013e-011 8.0958e-027   
     length 0.677363   
     axis -5.16581e-015 -90 -90   XYZ
    dof rx rz
    limits (-90.0 90.0)
           (-45.0 45.0)
  end
  begin
     id 29
     name rfingers
     direction -1 -4.48832e-011 1.61916e-026   
     length 0.546107   
     axis -1.03316e-014 -90 -90   XYZ
    dof rx
    limits (0.0 90.0)
  end
  begin
     id 30
     name rthumb
     direction -0.707107 -6.34895e-011 0.707107   
     length 0.784104   
     axis -90 -45 -2.85299e-015   XYZ
    dof rx rz
    limits (-45.0 45.0)
           (-45.0 45.0)
  end
:hierarchy
  begin
    root lhipjoint rhipjoint lowerback
    lhipjoint lfemur
    lfemur ltibia
    ltibia lfoot
    lfoot ltoes
    rhipjoint rfemur
    rfemur rtibia
    rtibia rfoot
    rfoot rtoes
    lowerback upperback
    upperback thorax
    thorax lowerneck lclavicle rclavicle
    lowerneck upperneck
    upperneck head
    lclavicle lhumerus
    lhumerus lradius
    lradius lwrist
    lwrist lhand lthumb
    lhand lfingers
    rclavicle rhumerus
    rhumerus rradius
    rradius rwrist
    rwrist rhand rthumb
    rhand rfingers
  end

#!OML:ASF H:\Terrain\Patient Classification 1\junglegym\FridayTest\junglegym.ASF
:FULLY-SPECIFIED
:DEGREES
368
root -18.166 17.5165 -0.126964 95.6917 -83.0972 -139.998
lowerback 6.54385 -0.0454714 4.4721
upperback -3.30295 0.44257 1.72145
thorax -7.12856 0.0351172 -0.757528
lowerneck 12.4373 2.35849 -14.8342
upperneck 36.8151 -3.58113 10.1586
head 10.2953 -4.31954 6.04083
rclavicle -7.35503e-015 -4.77083e-015
rhumerus 92.91 -28.269 -49.2054
rradius 33.1717
rwrist -5.44426
rhand -7.39607 19.8577
rfingers 7.12502
rthumb 18.4899 -9.28357
lclavicle -7.35503e-015 -4.77083e-015
lhumerus 98.005 24.1493 52.9262
lradius 30.2257
lwrist -23.7588
lhand 6.45311 22.1958
lfingers 7.12502
lthumb 31.755 49.4506
rfemur -16.0831 4.94849 29.2052
rtibia 49.3035
rfoot -4.10295 -5.94638
rtoes 25.3947
lfemur -18.3936 3.71746 -19.9129
ltibia 55.3127
lfoot -9.15117 1.98963
ltoes -35.9107
369
root -17.9746 17.4308 -0.12193 94.8447 -82.9506 -138.873
lowerback 6.70871 -0.0886582 4.90522
upperback -3.09689 0.423738 1.59107
thorax -7.00353 0.00895873 -1.13597
lowerneck 11.7077 2.12127 -14.5545
upperneck 36.7933 -3.71608 10.1132
head 10.4185 -4.29527 5.96737
rclavicle 5.1684e-015 -7.65321e-015
rhumerus 92.4777 -28.7309 -48.8256
rradius 33.5752
rwrist -5.5119
rhand -8.32466 18.862
rfingers 7.12502
rthumb 17.5964 -10.3617
lclavicle 5.1684e-015 -7.65321e-015
lhumerus 97.8546 24.1058 53.0291
lradius 31.2435
lwrist -23.9942
lhand 6.48649 22.4266
lfingers 7.12502
lthumb 31.7868 49.6751
rfemur -15.892 4.14316 29.2757
rtibia 50.5972
rfoot -5.15059 -6.2026
rtoes 25.2026
lfemur -17.9533 3.73003 -19.7127
ltibia 56.4368
lfoot -10.2616 2.0986
ltoes -32.8917
370
root -17.7735 17.3507 -0.119115 96.0089 -83.4153 -139.602
lowerback 6.78833 -0.104549 4.68011
upperback -2.97193 0.371098 1.3348
thorax -6.91714 -0.0067964 -1.27357
lowerneck 11.1345 2.12274 -15.5039
upperneck 36.9488 -3.84517 10.7526
head 10.6202 -4.41528 6.39327
rclavicle -3.03147e-014 3.17062e-014
rhumerus 92.4329 -28.7399 -49.0993
rradius 33.8579
rwrist -5.31512
rhand -8.44107 18.2382
rfingers 7.12502
rthumb 17.4844 -10.9955
lclavicle -3.03147e-014 3.17062e-014
lhumerus 97.2847 24.2693 52.6613
lradius 32.4852
lwrist -23.6755
lhand 6.62662 23.0679
lfingers 7.12502
lthumb 31.9202 50.2898
rfemur -16.175 3.92785 28.7001
rtibia 52.4132
rfoot -6.50543 -6.63989
rtoes 25.7344
lfemur -17.3124 3.80116 -20.2923
ltibia 56.9873
lfoot -11.1229 2.67056
ltoes -30.648
371
root -17.57 17.2726 -0.130985 97.3237 -83.5525 -140.451
lowerback 6.88175 -0.183534 4.40575
upperback -2.86132 0.246479 1.41809
thorax -6.85994 -0.0507968 -1.01752
lowerneck 10.2919 1.96667 -15.2972
upperneck 37.0199 -3.73217 10.3085
head 10.7731 -4.31689 6.18727
rclavicle -2.21148e-014 4.06515e-014
rhumerus 93.1704 -28.1509 -49.9771
rradius 33.7465
rwrist -4.61086
rhand -8.45662 18.6807
rfingers 7.12502
rthumb 17.4694 -10.5543
lclavicle -2.21148e-014 4.06515e-014
lhumerus 96.9411 24.5694 52.6404
lradius 32.7733
lwrist -23.8018
lhand 6.36953 23.2694
lfingers 7.12502
lthumb 31.6754 50.5399
rfemur -16.284 3.77224 28.5076
rtibia 53.6327
rfoot -7.57171 -6.93881
rtoes 26.9152
lfemur -16.9295 4.19496 -20.4779
ltibia 58.0311
lfoot -11.8439 3.60008
ltoes -32.3193
372
root -17.3697 17.1951 -0.167465 98.0515 -82.233 -141.017
lowerback 7.24031 -0.231926 5.11697
upperback -2.61732 0.289478 1.97144
thorax -6.80879 -0.0477792 -0.841002
lowerneck 9.0656 1.98146 -16.4877
upperneck 37.6065 -3.78318 11.1086
head 11.2723 -4.41852 6.75078
rclavicle -4.29872e-015 -3.28989e-014
rhumerus 93.834 -27.7988 -50.4941
rradius 33.4628
rwrist -4.01288
rhand -8.94587 19.1462
rfingers 7.12502
rthumb 16.9985 -10.13
lclavicle -4.29872e-015 -3.28989e-014
lhumerus 96.8891 24.6883 52.9997
lradius 32.7774
lwrist -24.6199
lhand 6.06202 23.4102
lfingers 7.12502
lthumb 31.3824 50.7381
rfemur -15.9041 3.94742 30.1089
rtibia 54.7398
rfoot -8.48347 -7.83641
rtoes 27.5003
lfemur -16.3856 5.12475 -18.8384
ltibia 59.2085
lfoot -12.6355 4.5876
ltoes -37.5283
373
root -17.1456 17.1312 -0.162507 98.8815 -83.062 -141.099
lowerback 7.09003 -0.245686 4.50041
upperback -2.82445 0.195895 1.67034
thorax -6.94473 -0.0764989 -0.799012
lowerneck 8.76821 2.06982 -17.3363
upperneck 38.2421 -3.93281 11.76
head 11.6503 -4.60567 7.19669
rclavicle 2.49226e-014 -2.39287e-014
rhumerus 93.6 -27.4682 -50.439
rradius 33.3351
rwrist -3.76416
rhand -9.7864 18.7384
rfingers 7.12502
rthumb 16.1893 -10.6056
lclavicle 2.49226e-014 -2.39287e-014
lhumerus 95.7191 24.4567 53.0434
lradius 33.608
lwrist -25.155
lhand 5.86216 23.3151
lfingers 7.12502
lthumb 31.192 50.6798
rfemur -16.3819 3.5214 29.1841
rtibia 56.104
rfoot -8.6305 -9.04429
rtoes 21.1879
lfemur -16.2114 5.22549 -19.8869
ltibia 60.0637
lfoot -13.4663 6.06944
ltoes -40.5023
374
root -16.9161 17.0652 -0.157389 99.7049 -83.538 -141.204
lowerback 6.97704 -0.288017 4.23508
upperback -2.96765 0.102143 1.48431
thorax -7.0351 -0.117412 -0.832861
lowerneck 8.52819 2.10107 -18.0369
upperneck 38.6477 -4.06188 12.1791
head 11.9196 -4.76425 7.51625
rclavicle 8.88319e-015 -6.88292e-014
rhumerus 93.2825 -27.0741 -50.3336
rradius 33.4624
rwrist -3.74232
rhand -11.1201 18.2944
rfingers 7.12502
rthumb 14.9048 -11.1494
lclavicle 8.88319e-015 -6.88292e-014
lhumerus 96.9124 24.0117 53.5682
lradius 32.3697
lwrist -25.9595
lhand 5.62932 22.9788
lfingers 7.12502
lthumb 30.97 50.386
rfemur -16.7587 3.01195 28.524
rtibia 57.3573
rfoot -9.12766 -9.80739
rtoes 17.7064
lfemur -16.0171 5.18634 -20.5279
ltibia 61.0891
lfoot -14.5396 7.00776
ltoes -39.6621
